<?xml version="1.0" encoding="iso-8859-1"?>
<!-- Generator: Adobe Illustrator 16.0.0, SVG Export Plug-In . SVG Version: 6.00 Build 0)  -->
<!DOCTYPE svg PUBLIC "-//W3C//DTD SVG 1.1//EN" "http://www.w3.org/Graphics/SVG/1.1/DTD/svg11.dtd">
<svg version="1.1" id="Capa_1" xmlns="http://www.w3.org/2000/svg" xmlns:xlink="http://www.w3.org/1999/xlink" x="0px" y="0px"
	 width="457.148px" height="457.148px" viewBox="0 0 457.148 457.148" style="enable-background:new 0 0 457.148 457.148;"
	 xml:space="preserve">
<g>
	<path d="M452.766,4.923c-14.801-14.806-65.045,11.435-79.847,26.241l-59.28,59.284H43.984c-6.409,0-11.918,4.555-13.119,10.854
		c-1.198,6.298,2.249,12.556,8.21,14.911l178.319,70.471L108.048,296.026H4.627c-2.218,0.007-4.132,1.582-4.545,3.766
		c-0.416,2.19,0.777,4.356,2.846,5.171l87.028,34.396c0.502,2.185,1.203,4.323,2.101,6.414l-3.807,3.815
		c-5.424,5.421-5.424,14.204,0,19.631c5.417,5.424,14.217,5.424,19.634,0l3.716-3.714c2.106,0.93,4.277,1.663,6.49,2.188
		l33.545,85.971c0.808,2.074,2.979,3.272,5.167,2.867c0.941-0.169,1.774-0.635,2.415-1.279c0.847-0.836,1.355-1.998,1.355-3.273
		V350.736l111.08-111.076l69.807,178.907c2.336,5.976,8.597,9.45,14.905,8.268c2.726-0.514,5.122-1.833,6.972-3.67
		c2.436-2.447,3.912-5.802,3.92-9.458V144.059l59.281-59.283C441.333,69.971,467.567,19.727,452.766,4.923z"/>
</g>
<g>
</g>
<g>
</g>
<g>
</g>
<g>
</g>
<g>
</g>
<g>
</g>
<g>
</g>
<g>
</g>
<g>
</g>
<g>
</g>
<g>
</g>
<g>
</g>
<g>
</g>
<g>
</g>
<g>
</g>
</svg>
