<svg xmlns="http://www.w3.org/2000/svg" height="800" width="1200" viewBox="-37.062 -28.3525 321.204 170.115"><g fill="none"><path fill="#D12053" d="M223.65 62.45l-53.03-8.31 7.03 31.6z"/><path fill="#E2136E" d="M223.65 62.45L183.69 6.93l-13.06 47.22z"/><path fill="#D12053" d="M169.39 53.51L127.52 0l54.83 6.55z"/><path fill="#9E1638" d="M150.32 31.15L127.07 9.24h6.12z"/><path fill="#D12053" d="M234.96 35.46l-9.84 26.69-15.95-22.06z"/><path fill="#E2136E" d="M183.84 84.14l38.61-15.51 1.62-4.93z"/><path fill="#9E1638" d="M152.96 113.41l16.54-58.02 8.39 37.75z"/><path fill="#E2136E" d="M236.5 35.67l-4.06 11.02 14.64-.24zM0 40.09c.71.06 1.43.19 2.19.19s1.38-.13 2.19-.19v23.47c2.31-3.93 5.22-6.52 9.5-6.52 7.74 0 11.06 7.66 11.06 14.7 0 8.43-4.5 16.5-12.39 16.5a8.66 8.66 0 01-7.77-4.47c-1.32 1.16-2.49 2.55-3.74 3.81h-1zm4.28 34.52c0 6.84 2.9 11.61 7.67 11.61 6.19 0 8.18-8.32 8.18-14.22 0-6.85-2.26-12.24-7.62-12.3-6.26-.05-8.23 7.36-8.23 14.92z"/><path fill="#231F20" d="M45.13 55.27l-4.66 6c4.38 6.4 8.92 12.67 13.32 19.15l4.44 7v.35c-1.09-.07-2.08-.21-3-.21-.92 0-2.08.14-3.06.21-1.21-2.24-2.41-4.31-3.78-6.34l-12-17.75c-.27-.28-.92-.5-.92-.21v24.3c-.88-.07-1.65-.21-2.41-.21-.76 0-1.64.14-2.41.21V40.09c.77.06 1.6.21 2.41.21s1.53-.15 2.41-.21v21.52c0 .42.82.14 1.36-.42a37.1 37.1 0 002.92-3.42l13.49-17.7c.71.06 1.42.21 2.19.21s1.36-.15 2.14-.21zM81.42 82.4c0 2.48-.16 3.74 3.07 2.92v1.39a8.87 8.87 0 01-1.65.63c-2.85.57-5.21.06-5.65-3.67l-.49.55a10.17 10.17 0 01-8.12 4c-3.88 0-7.28-3.06-7.28-7.75 0-7.23 5-8.18 10.13-9.13 4.34-.82 5.82-1.2 5.82-4.25 0-4.7-2.3-7.42-6.41-7.42a6.85 6.85 0 00-6.52 4.37h-.6v-3.52a14.2 14.2 0 018.87-3.48c5.75 0 8.88 3.48 8.88 10.65zm-4.38-10.47l-1.93.44c-3.73.82-9.32 1.45-9.32 7.24 0 4 2 6 5.36 6a6.83 6.83 0 004.44-2.44c.4-.46 1.5-1.54 1.5-2zm14.15 9.63c1.3 2.49 3.72 4.72 6.3 4.72a5.67 5.67 0 005.38-5.78c0-8.56-12.95-3-12.95-14.08 0-6.08 4-9.37 8.93-9.37 2.18-.048 4.33.52 6.2 1.64a32.791 32.791 0 00-1.3 4.5h-.5c-.72-2.09-2.63-4.19-4.66-4.19-2.74 0-5 1.85-5 5.28 0 8.11 12.95 3.79 12.95 13.94 0 6.79-5.26 10-10.1 10a12.73 12.73 0 01-6.84-2 34.42 34.42 0 001.15-4.65zm22.73-41.47c.73.06 1.44.19 2.2.19.76 0 1.38-.13 2.2-.19v23.09c1.92-3.87 4.93-6.14 8.83-6.14 6.36 0 8.83 4.36 8.83 12.36v18.37c-.83-.07-1.47-.19-2.2-.19-.73 0-1.48.13-2.2.19V70.85c0-7-1.41-10.53-6.08-10.53-4.94 0-7.18 3.56-7.18 10.15v17.3c-.82-.07-1.47-.19-2.2-.19-.73 0-1.46.13-2.2.19z"/></g></svg>