<svg id="Capa_1" enable-background="new 0 0 512 512" height="512" viewBox="0 0 512 512" width="512" xmlns="http://www.w3.org/2000/svg"><g><path d="m441 0h-396c-24.813 0-45 20.187-45 45v396c0 24.813 20.187 45 45 45h296c3.979 0 7.794-1.581 10.606-4.394l130-130c2.814-2.813 4.394-6.628 4.394-10.606v-296c0-24.813-20.187-45-45-45z" fill="#696969"/><path d="m243 0h-198c-24.813 0-45 20.187-45 45v198h243z" fill="#696969"/><path d="m486 243v-198c0-24.813-20.187-45-45-45h-198v243z" fill="#555"/><path d="m243 243v243h98c3.979 0 7.794-1.581 10.606-4.394l130-130c2.814-2.813 4.394-6.628 4.394-10.606v-98zm228 98h.01z" fill="#414141"/><path d="m0 243v198c0 24.813 20.187 45 45 45h198v-243z" fill="#555"/><path d="m156.5 106.5h-20v-20c0-8.284-6.716-15-15-15s-15 6.716-15 15v20h-20c-8.284 0-15 6.716-15 15s6.716 15 15 15h20v20c0 8.284 6.716 15 15 15s15-6.716 15-15v-20h20c8.284 0 15-6.716 15-15s-6.716-15-15-15z" fill="#dcf5fa"/><path d="m399.5 136.5h-70c-8.284 0-15-6.716-15-15s6.716-15 15-15h70c8.284 0 15 6.716 15 15s-6.716 15-15 15z" fill="#bedce6"/><path d="m142.713 364.5 14.394-14.394c5.858-5.858 5.858-15.355 0-21.213-5.857-5.858-15.355-5.858-21.213 0l-14.394 14.394-14.394-14.394c-5.857-5.858-15.355-5.858-21.213 0s-5.858 15.355 0 21.213l14.394 14.394-14.394 14.394c-5.858 5.858-5.858 15.355 0 21.213 2.929 2.929 6.768 4.394 10.606 4.394s7.678-1.464 10.606-4.394l14.394-14.394 14.394 14.394c2.929 2.929 6.768 4.394 10.606 4.394s7.678-1.464 10.606-4.394c5.858-5.858 5.858-15.355 0-21.213z" fill="#dcf5fa"/><path d="m357 512c-85.468 0-155-69.533-155-155s69.532-155 155-155 155 69.533 155 155-69.532 155-155 155z" fill="#5fc314"/><g fill="#bedce6"><path d="m392 402h-70c-8.284 0-15-6.716-15-15s6.716-15 15-15h70c8.284 0 15 6.716 15 15s-6.716 15-15 15z"/><path d="m392 342h-70c-8.284 0-15-6.716-15-15s6.716-15 15-15h70c8.284 0 15 6.716 15 15s-6.716 15-15 15z"/></g></g></svg>