<svg height="512pt" viewBox="0 0 512 512" width="512pt" xmlns="http://www.w3.org/2000/svg"><path d="m71 144.007812h-4c-22.089844 0-40 17.910157-40 40v262.421876c0 .875.707031 1.578124 1.578125 1.578124h454.84375c.871094 0 1.578125-.703124 1.578125-1.578124v-262.421876c0-22.089843-17.910156-40-40-40zm0 0" fill="#dff6fc"/><path d="m10 447.996094v14c0 22.09375 17.910156 40 40 40h412c22.089844 0 40-17.90625 40-40v-14zm0 0" fill="#91def5"/><path d="m146.546875 160.917969v78.359375l103.425781 67.421875c3.644532 2.378906 8.347656 2.378906 11.996094 0l103.488281-67.449219v-78.328125h-218.910156zm0 0" fill="#ff6977"/><path d="m411.476562 127.6875-149.421874 97.300781c-3.679688 2.394531-8.425782 2.394531-12.109376 0l-149.421874-97.300781c-6.71875-4.375-6.71875-14.21875 0-18.59375l149.421874-97.300781c3.683594-2.394531 8.429688-2.394531 12.109376 0l149.421874 97.300781c6.722657 4.375 6.722657 14.21875 0 18.59375zm0 0" fill="#f8a2aa"/><path d="m115.480469 320.449219h-40v-52.777344c0-11.046875 8.957031-20 20-20 11.046875 0 20 8.953125 20 20zm0 0" fill="#8690a6"/><path d="m502 437.996094h-7v-72.699219c0-5.519531-4.476562-10-10-10s-10 4.480469-10 10v72.699219h-438v-253.988282c0-16.539062 13.457031-30 30-30h18.480469v85.386719c-11.636719 4.125-20 15.242188-20 28.277344v52.777344c0 5.523437 4.480469 10 10 10h40c5.523437 0 10-4.476563 10-10v-52.777344c0-13.035156-8.359375-24.152344-20-28.277344v-96.542969l31.066406 20.226563v76.199219c0 3.378906 1.710937 6.53125 4.539063 8.378906l103.425781 67.417969c3.480469 2.269531 7.46875 3.40625 11.457031 3.40625s7.980469-1.136719 11.460938-3.402344l103.488281-67.449219c2.832031-1.847656 4.539062-5 4.539062-8.378906v-76.175781l13.921875-9.066407h55.621094c16.542969 0 30 13.457032 30 30v101.277344c0 5.523438 4.476562 10 10 10s10-4.476562 10-10v-101.277344c0-27.566406-22.429688-50-50-50h-25.410156c4.382812-3.960937 6.929687-9.589843 6.929687-15.617187 0-7.160156-3.585937-13.769531-9.585937-17.675781l-149.421875-97.300782c-6.992188-4.550781-16.027344-4.550781-23.023438 0l-149.421875 97.300782c-6.003906 3.90625-9.585937 10.515625-9.585937 17.675781 0 .183594.011719.363281.019531.546875-.003906.109375-.019531.222656-.019531.335938v14.734374h-18.480469c-27.570312 0-50 22.429688-50 50v253.988282h-7c-5.523438 0-10 4.476562-10 10v14c0 27.570312 22.429688 50 50 50h412c27.570312 0 50-22.429688 50-50v-14c0-5.519532-4.476562-10-10-10zm-396.519531-127.546875h-20v-42.777344c0-5.511719 4.488281-10 10-10 5.515625 0 10 4.488281 10 10zm249.976562-76.617188-98.949219 64.488281c-.328124.214844-.75.214844-1.074218 0l-98.886719-64.460937v-57.757813l87.941406 57.265626c3.496094 2.277343 7.503907 3.414062 11.511719 3.414062s8.015625-1.140625 11.511719-3.414062l87.945312-57.269532zm-249.476562-116.359375 149.421875-97.296875c.183594-.117187.390625-.179687.597656-.179687.210938 0 .417969.0625.597656.179687l149.425782 97.296875c.132812.089844.496093.324219.496093.917969s-.363281.828125-.496093.917969l-149.425782 97.296875c-.363281.238281-.832031.238281-1.195312 0l-149.421875-97.296875c-.136719-.089844-.5-.324219-.5-.917969s.363281-.828125.5-.917969zm386.019531 344.523438c0 16.542968-13.457031 30-30 30h-412c-16.542969 0-30-13.457032-30-30v-4h8.339844c.078125.003906.15625.011718.238281.011718h454.84375c.082031 0 .160156-.007812.238281-.011718h8.339844zm0 0"/><path d="m485 315.296875c-2.628906 0-5.210938 1.070313-7.070312 2.929687-1.859376 1.859376-2.929688 4.441407-2.929688 7.070313s1.070312 5.210937 2.929688 7.070313c1.859374 1.859374 4.441406 2.929687 7.070312 2.929687s5.210938-1.070313 7.070312-2.929687c1.859376-1.859376 2.929688-4.441407 2.929688-7.070313s-1.070312-5.210937-2.929688-7.070313c-1.859374-1.859374-4.441406-2.929687-7.070312-2.929687zm0 0"/><path d="m256 129.273438c5.523438 0 10-4.476563 10-10 0-5.523438-4.476562-10-10-10h-.027344c-5.523437 0-9.988281 4.476562-9.988281 10 0 5.523437 4.492187 10 10.015625 10zm0 0"/></svg>