<?xml version="1.0" encoding="iso-8859-1"?>
<!-- Generator: Adobe Illustrator 18.0.0, SVG Export Plug-In . SVG Version: 6.00 Build 0)  -->
<!DOCTYPE svg PUBLIC "-//W3C//DTD SVG 1.1//EN" "http://www.w3.org/Graphics/SVG/1.1/DTD/svg11.dtd">
<svg version="1.1" id="Capa_1" xmlns="http://www.w3.org/2000/svg" xmlns:xlink="http://www.w3.org/1999/xlink" x="0px" y="0px"
	 viewBox="0 0 350 350" style="enable-background:new 0 0 350 350;" xml:space="preserve">
<g>
	<path d="M248.631,294.941h-4.045c-6.326-36.704-7.344-74.362-29.263-95.858c-21.472-21.054-49.554-27.569-68.185-44.61v-7.976
		c1.707-0.817,2.897-2.547,2.897-4.562c0-2.016-1.19-3.746-2.897-4.564v-3.39c0.445-0.51,0.724-1.169,0.724-1.898
		c0-1.6-2.897-9.853-2.897-9.853s-2.898,8.253-2.898,9.853c0,0.73,0.279,1.39,0.725,1.899v3.389
		c-1.708,0.817-2.898,2.548-2.898,4.564c0,2.016,1.191,3.745,2.898,4.563v7.975c-18.631,17.041-46.714,23.556-68.185,44.611
		c-21.92,21.497-22.939,59.154-29.264,95.858h-4.047l-6.955,17.967h221.246L248.631,294.941z M74.465,294.217h-7.856v-11.302h7.856
		V294.217z M99.273,294.217h-7.855v-11.302h7.855V294.217z M124.082,294.217h-7.855v-11.302h7.855V294.217z M148.893,294.217h-7.857
		v-11.302h7.857V294.217z M173.701,294.217h-7.857v-11.302h7.857V294.217z M198.508,294.217h-7.855v-11.302h7.855V294.217z
		 M223.318,294.217h-7.857v-11.302h7.857V294.217z"/>
	<path d="M308.162,225.744v-8.563l-9.355-8.162l-11.952,10.434L274.9,209.02l-9.336,8.15v8.574h-15.214v28.398h10.995v68.039H26.623
		V350h234.723h1.957h49.075v-95.857h10.999v-28.398H308.162z M297.127,317.641H276.6v-27.826h2.84v-10.951l7.424-7.297l7.424,7.297
		v10.951h2.84V317.641z"/>
	<polygon points="274.9,185.547 265.564,193.696 265.564,211.4 274.9,203.25 286.856,213.684 298.806,203.25 308.162,211.413 
		308.162,193.707 298.807,185.546 286.856,195.979 	"/>
	<path d="M259.113,159.962l6.451,20.068v7.896l9.336-8.149l11.955,10.432l11.951-10.431l9.356,8.161v-7.914l6.451-20.063h-6.451
		V79.179l6.451-20.063h-17.139V41.619c0-5.115-3.621-9.384-8.438-10.387v-6.965c1.707-0.817,2.898-2.547,2.898-4.561
		c0-2.016-1.191-3.746-2.898-4.564v-3.391c0.446-0.509,0.725-1.169,0.725-1.899c0-1.6-2.898-9.852-2.898-9.852
		s-2.897,8.253-2.897,9.852c0,0.731,0.279,1.39,0.724,1.899v3.392c-1.707,0.817-2.897,2.547-2.897,4.563
		c0,2.015,1.19,3.744,2.897,4.561v6.965c-4.818,1.003-8.438,5.271-8.438,10.387v17.497h-17.139l6.451,20.068v80.777H259.113z
		 M281.053,90.31h1.607v-6.198l4.203-4.131l4.201,4.131v6.198h1.607v15.752h-11.619V90.31z M281.053,127.691h1.607v-6.195
		l4.203-4.133l4.201,4.133v6.195h1.607v15.752h-11.619V127.691z"/>
</g>
<g>
</g>
<g>
</g>
<g>
</g>
<g>
</g>
<g>
</g>
<g>
</g>
<g>
</g>
<g>
</g>
<g>
</g>
<g>
</g>
<g>
</g>
<g>
</g>
<g>
</g>
<g>
</g>
<g>
</g>
</svg>
