<svg id="Layer_1" enable-background="new 0 0 512 512" height="512" viewBox="0 0 512 512" width="512" xmlns="http://www.w3.org/2000/svg"><g><g><g><g><g><g><g><g id="XMLID_790_"><g id="XMLID_971_"><g id="XMLID_972_"><g id="XMLID_973_"><g id="XMLID_974_"><g id="XMLID_975_"><g id="XMLID_976_"><g id="XMLID_977_"><g id="XMLID_978_"><g id="XMLID_979_"><g id="XMLID_980_"><g id="XMLID_981_"><g id="XMLID_982_"><g id="XMLID_983_"><g><path d="m512 256c0 61.55-21.73 118.03-57.93 162.19-46.95 57.27-118.24 21.71-198.07 21.71s-151.12 35.56-198.07-21.71c-36.2-44.16-57.93-100.64-57.93-162.19 0-141.38 114.62-256 256-256s256 114.62 256 256z" fill="#00cb75"/></g></g></g></g></g></g></g></g></g></g></g></g></g></g></g></g></g></g></g></g></g><path d="m454.07 418.19c30.528-37.241 50.765-83.244 56.357-133.66l-254.539-254.54c-11.361 6.09-21.581 30.936-21.581 30.936l21.693 80.616-131.789 308.988c38.497 2.335 83.586-10.63 131.789-10.63 79.83 0 151.12 35.56 198.07-21.71z" fill="#00a78e"/><g><path d="m323.594 200.102c-41.205-19.852-63.138-51.626-67.239-57.994l-.355-.566-.355.566c-4.101 6.368-26.034 38.142-67.239 57.994-45.966 22.146-63.286 78.741-15.988 113.73h167.164c47.298-34.988 29.978-91.584-15.988-113.73z" fill="#fff"/><path d="m342.41 311.64c-.92.75-1.86 1.47-2.83 2.19h-83.58v-172.29l.35.57c4.11 6.37 26.04 38.14 67.24 57.99 45.03 21.7 62.57 76.43 18.82 111.54z" fill="#e2e2e2"/><path d="m103.377 311.641h305.247v76.056h-305.247z" fill="#ffd321"/><path d="m256 311.64h152.62v76.06h-152.62z" fill="#ffb454"/><path d="m454.07 367.8v50.39c-46.95 57.27-118.24 93.81-198.07 93.81s-151.12-36.54-198.07-93.81v-50.39z" fill="#ffef4a"/><path d="m454.07 367.8v50.39c-46.95 57.27-118.24 93.81-198.07 93.81v-144.2z" fill="#ffd321"/><g><path d="m247.234 58.994c0-10.709 3.183-20.676 8.653-29.004-24.171 7.017-41.839 29.325-41.839 55.76 0 32.063 25.992 58.055 58.055 58.055 25.485 0 47.134-16.421 54.944-39.26-7.885 4.669-17.086 7.349-26.914 7.349-29.215 0-52.899-23.684-52.899-52.9z" fill="#ffd321"/></g><g><g><path d="m327.05 104.54c-7.81 22.84-29.46 39.26-54.95 39.26-5.59 0-10.99-.79-16.1-2.26v-53.38c9.47 14.3 25.7 23.73 44.13 23.73 9.83 0 19.03-2.68 26.92-7.35z" fill="#ffb454"/></g></g></g></g></svg>