<?xml version="1.0" encoding="iso-8859-1"?>
<!-- Generator: Adobe Illustrator 19.0.0, SVG Export Plug-In . SVG Version: 6.00 Build 0)  -->
<svg version="1.1" id="Capa_1" xmlns="http://www.w3.org/2000/svg" xmlns:xlink="http://www.w3.org/1999/xlink" x="0px" y="0px"
	 viewBox="0 0 448 448" style="enable-background:new 0 0 448 448;" xml:space="preserve">
<g>
	<g>
		<path d="M405.333,111.821H271.083L251.541,92.28c-44.587-44.608-117.163-44.608-161.749,0l-46.891,46.912
			C15.232,166.861,0,203.64,0,242.744c0,80.747,65.685,146.432,146.432,146.432h130.901c23.531,0,42.667-19.136,42.667-42.688
			c0-8.768-2.667-16.939-7.232-23.723c16.619-5.845,28.565-21.696,28.565-40.277c0-8.768-2.667-16.939-7.232-23.723
			c16.619-5.845,28.565-21.696,28.565-40.277c0-7.765-2.091-15.061-5.739-21.333h48.405c23.531,0,42.667-19.136,42.667-42.667
			S428.864,111.821,405.333,111.821z M405.333,175.843H266.667c-5.888,0-10.667,4.779-10.667,10.667s4.779,10.667,10.667,10.667H320
			c11.776,0,21.333,9.579,21.333,21.333c0,11.755-9.557,21.333-21.333,21.333h-32c-5.888,0-10.667,4.779-10.667,10.667
			s4.779,10.667,10.667,10.667h10.667c11.776,0,21.333,9.579,21.333,21.333c0,11.755-9.557,21.333-21.333,21.333h-21.333
			c-5.888,0-10.667,4.779-10.667,10.667s4.779,10.667,10.667,10.667c11.776,0,21.333,9.579,21.333,21.333
			s-9.557,21.333-21.333,21.333H146.432c-68.971,0-125.099-56.128-125.099-125.099c0-33.408,13.013-64.811,36.651-88.448
			l46.891-46.912c18.155-18.133,41.963-27.2,65.792-27.2c23.829,0,47.637,9.067,65.792,27.2l4.459,4.459h-59.584
			c-5.888,0-10.667,4.779-10.667,10.667s4.779,10.667,10.667,10.667h224c11.776,0,21.333,9.579,21.333,21.333
			C426.667,166.264,417.109,175.843,405.333,175.843z"/>
	</g>
</g>
<g>
</g>
<g>
</g>
<g>
</g>
<g>
</g>
<g>
</g>
<g>
</g>
<g>
</g>
<g>
</g>
<g>
</g>
<g>
</g>
<g>
</g>
<g>
</g>
<g>
</g>
<g>
</g>
<g>
</g>
</svg>
