<?xml version="1.0" encoding="iso-8859-1"?>
<!-- Generator: Adobe Illustrator 21.0.0, SVG Export Plug-In . SVG Version: 6.00 Build 0)  -->
<svg xmlns="http://www.w3.org/2000/svg" xmlns:xlink="http://www.w3.org/1999/xlink" version="1.1" id="Capa_1" x="0px" y="0px" viewBox="0 0 512 512" style="enable-background:new 0 0 512 512;" xml:space="preserve" width="512" height="512">
<g>
	<g>
		<g>
			<circle style="fill:#FF432E;" cx="256" cy="256" r="256"/>
		</g>
	</g>
	<g>
		<path style="fill:#DB0404;" d="M269.234,296L423.14,449.906C477.554,402.961,512,333.505,512,256c0-1.765-0.031-3.522-0.067-5.279    L400.286,139.073L269.234,296z"/>
		<path style="fill:#DB0404;" d="M227.157,258.611l-78.525,57.93l66.891,66.891l-108.694,5.695l121.364,121.364    C237.328,511.479,246.603,512,256,512c62.684,0,120.095-22.542,164.6-59.946L227.157,258.611z"/>
	</g>
	<g>
		<g>
			<circle style="fill:#FFFFFF;" cx="184.939" cy="283.567" r="49.045"/>
		</g>
		<g>
			<path style="fill:#E9EDF5;" d="M184.939,234.521c-0.059,0-0.117,0.004-0.177,0.004v98.082c0.059,0,0.117,0.004,0.177,0.004     c27.087,0,49.045-21.958,49.045-49.045S212.026,234.521,184.939,234.521z"/>
		</g>
		<g>
			<path style="fill:#FFFFFF;" d="M184.939,420.646c30.339,0,57.855-12.015,78.11-31.518c-12.344-31.06-42.652-53.03-78.11-53.03     s-65.765,21.97-78.11,53.03C127.083,408.631,154.6,420.646,184.939,420.646z"/>
		</g>
		<g>
			<path style="fill:#E9EDF5;" d="M263.048,389.127c-12.345-31.061-42.652-53.03-78.11-53.03c-0.059,0-0.117,0.003-0.177,0.003     v84.542c0.059,0,0.118,0.002,0.177,0.002C215.277,420.646,242.794,408.631,263.048,389.127z"/>
		</g>
	</g>
	<g>
		<circle style="fill:#FFCE00;" cx="334.432" cy="217.259" r="102.229"/>
	</g>
	<g>
		<path style="fill:#FFA300;" d="M334.432,115.03c-0.288,0-0.574,0.008-0.861,0.011v204.437c0.287,0.002,0.573,0.011,0.861,0.011    c56.46,0,102.229-45.77,102.229-102.229S390.892,115.03,334.432,115.03z"/>
	</g>
	<g>
		<path style="fill:#2864F0;" d="M349.432,253.781h-30v-1.685c0-19.856,10.282-38.227,27.505-49.142    c7.141-4.525,11.212-12.274,10.891-20.728c-0.461-12.139-10.33-22.008-22.468-22.469c-6.453-0.25-12.538,2.073-17.163,6.525    c-4.629,4.457-7.178,10.448-7.178,16.871h-30c0-14.652,5.814-28.318,16.372-38.482c10.553-10.16,24.439-15.439,39.108-14.892    c27.719,1.052,50.256,23.59,51.309,51.309c0.72,18.963-8.787,37.051-24.811,47.206c-8.493,5.383-13.564,14.281-13.564,23.802    V253.781z"/>
	</g>
	<g>
		<path style="fill:#27488F;" d="M387.807,181.089c-1.052-27.719-23.59-50.257-51.309-51.309c-0.98-0.037-1.955-0.043-2.927-0.028    v30.01c0.593-0.021,1.188-0.027,1.788-0.004c12.138,0.461,22.007,10.33,22.468,22.469c0.321,8.454-3.75,16.202-10.891,20.728    c-5.093,3.228-9.573,7.111-13.366,11.488v39.338h15.861v-1.685c0-9.521,5.071-18.419,13.564-23.802    C379.02,218.14,388.527,200.052,387.807,181.089z"/>
	</g>
	<g>
		<rect x="319.432" y="267.567" style="fill:#2864F0;" width="30" height="28.433"/>
	</g>
	<g>
		<rect x="333.571" y="267.567" style="fill:#27488F;" width="15.861" height="28.433"/>
	</g>
</g>















</svg>
