<?xml version="1.0" encoding="iso-8859-1"?>
<!-- Generator: Adobe Illustrator 19.0.0, SVG Export Plug-In . SVG Version: 6.00 Build 0)  -->
<svg version="1.1" id="Capa_1" xmlns="http://www.w3.org/2000/svg" xmlns:xlink="http://www.w3.org/1999/xlink" x="0px" y="0px"
	 viewBox="0 0 468.293 468.293" style="enable-background:new 0 0 468.293 468.293;" xml:space="preserve">
<g>
	<path style="fill:#2F4859;" d="M394.255,468.293c-3.181,0-6.368-1.16-8.872-3.504l-101.712-95.22
		c-5.228-4.898-5.5-13.111-0.602-18.342c4.898-5.244,13.117-5.504,18.345-0.605l101.712,95.22c5.228,4.898,5.5,13.111,0.602,18.342
		C401.175,466.914,397.715,468.293,394.255,468.293z"/>
	<path style="fill:#2F4859;" d="M74.037,468.293c-3.46,0-6.92-1.378-9.474-4.109c-4.898-5.231-4.626-13.444,0.602-18.342
		l101.706-95.22c5.234-4.892,13.447-4.632,18.345,0.605c4.898,5.231,4.626,13.444-0.602,18.342l-101.706,95.22
		C80.406,467.133,77.218,468.293,74.037,468.293z"/>
</g>
<path style="fill:#27A2DB;" d="M406.538,315.265c0,118.082-344.789,118.082-344.789,0V113.144c0-150.859,344.786-150.859,344.786,0
	v202.121L406.538,315.265L406.538,315.265z"/>
<path style="fill:#64798A;" d="M406.538,247.968H61.756l-0.007-134.823c0-150.859,344.789-150.859,344.789,0V247.968z"/>
<path style="fill:#3A556A;" d="M386.007,248.235c0,12.645-303.719,12.645-303.719,0V97.068c0-12.645,303.719-12.645,303.719,0
	V248.235z"/>
<path style="fill:#2F4859;" d="M386.036,97.1v151.127c0,12.653-303.745,12.653-303.745,0
	C82.291,248.227,386.036,84.447,386.036,97.1z"/>
<path style="fill:#E56353;" d="M160.888,341.089h-47.997c-8.297,0-15.022-6.726-15.022-15.022v-1.179
	c0-8.297,6.726-15.022,15.022-15.022h47.997c8.297,0,15.022,6.726,15.022,15.022v1.179
	C175.91,334.363,169.185,341.089,160.888,341.089z"/>
<circle style="fill:#FCD462;" cx="136.891" cy="325.476" r="25.956"/>
<path style="fill:#E56353;" d="M355.397,341.089h-47.997c-8.297,0-15.022-6.726-15.022-15.022v-1.179
	c0-8.297,6.726-15.022,15.022-15.022h47.997c8.297,0,15.022,6.726,15.022,15.022v1.179
	C370.419,334.363,363.693,341.089,355.397,341.089z"/>
<circle style="fill:#FCD462;" cx="331.426" cy="325.476" r="25.956"/>
<circle style="fill:#F6C358;" cx="234.146" cy="42.571" r="25.956"/>
<g>
</g>
<g>
</g>
<g>
</g>
<g>
</g>
<g>
</g>
<g>
</g>
<g>
</g>
<g>
</g>
<g>
</g>
<g>
</g>
<g>
</g>
<g>
</g>
<g>
</g>
<g>
</g>
<g>
</g>
</svg>
