<svg id="Capa_1" enable-background="new 0 0 497 497" height="512" viewBox="0 0 497 497" width="512" xmlns="http://www.w3.org/2000/svg"><g><path d="m319.243 28.791c-2.672.008-5.327-.271-7.913-.821l-44.192 177.37h91.878v-98.64c23.564-32.435.319-77.909-39.773-77.909z" fill="#db2116"/><path d="m311.331 27.97c-6.077-1.293-11.761-4.113-16.322-8.428-12.361-11.697-28.913-18.522-46.503-18.522s-34.142 6.825-46.502 18.522c-6.502 6.153-15.284 9.277-24.235 9.25-40.093 0-63.34 45.473-39.777 77.911v83.637l110.505 68.487 82.881-154.643c15.652-28.728 3.765-67.685-20.047-76.214z" fill="#ff3a2f"/><path d="m310.085 154.036c0-34.014-27.574-61.588-61.587-61.587-34.014 0-61.587 27.574-61.588 61.587 0 13.576 4.392 26.126 11.833 36.306v34.242l49.754 34.242 49.758-68.482c7.44-10.179 11.83-22.733 11.83-36.308z" fill="#a41910"/><path d="m51.582 120.458c-.818 2.544-1.904 4.983-3.226 7.272l140.766 92.205 9.615-29.592-60.769-83.635c-23.566-32.435-73.997-24.379-86.386 13.75z" fill="#db2116"/><path d="m48.356 127.73c-3.107 5.38-7.546 9.915-13.06 12.919-14.944 8.14-26.549 21.774-31.985 38.503-5.435 16.729-4.059 34.58 3.245 49.95 3.842 8.085 4.1 17.402 1.308 25.907-12.39 38.13 23.674 74.292 61.806 61.906l79.544 25.845 99.283-83.933-121.462-126.612c-22.486-23.763-63.209-24.496-78.679-4.485z" fill="#ff3a2f"/><path d="m167.867 167.871c-32.349-10.511-67.094 7.193-77.605 39.542s7.193 67.094 39.541 77.605c12.912 4.195 26.204 3.897 38.186-.035l32.566 10.581 47.941-36.738-49.754-68.484c-7.381-10.222-17.964-18.275-30.875-22.471z" fill="#a41910"/><path d="m56.051 403.346c2.166 1.564 4.151 3.35 5.919 5.315l131.191-105.383-25.173-18.289-98.321 31.95c-38.128 12.389-46.051 62.842-13.616 86.407z" fill="#db2116"/><path d="m61.97 408.661c4.156 4.618 7.098 10.24 8.251 16.413 3.124 16.728 12.504 31.979 26.734 42.318s31.633 14.547 48.508 12.349c8.876-1.156 17.818 1.478 25.043 6.762 32.435 23.566 77.972.442 77.975-39.651l49.161-67.664-49.145-120.361-157.949 76.392c-29.548 14.042-42.829 52.545-28.578 73.442z" fill="#ff3a2f"/><path d="m137.078 307.404c-19.993 27.518-13.893 66.033 13.625 86.025 27.518 19.993 66.033 13.893 86.025-13.625 7.98-10.984 11.804-23.717 11.767-36.328l20.127-27.702-20.125-56.947-80.507 26.156c-12.003 3.862-22.933 11.438-30.912 22.421z" fill="#a41910"/><path d="m326.474 486.513c2.157-1.577 4.469-2.912 6.884-3.987l-59.685-157.335-25.173 18.288.003 103.382c.002 40.092 45.536 63.217 77.971 39.652z" fill="#db2116"/><path d="m333.358 482.526c5.676-2.526 11.932-3.586 18.159-2.775 16.875 2.198 34.277-2.01 48.508-12.349 14.23-10.339 23.61-25.59 26.734-42.318 1.644-8.799 6.912-16.489 14.17-21.728 32.436-23.566 24.515-74.019-13.615-86.412l-49.161-67.664-129.657 9.546 23.845 173.825c4.224 32.442 36.739 56.971 61.017 49.875z" fill="#ff3a2f"/><path d="m260.266 379.804c19.993 27.518 58.508 33.618 86.025 13.625 27.518-19.993 33.618-58.508 13.625-86.025-7.98-10.984-18.909-18.555-30.914-22.417l-20.127-27.702-60.379 1.542-.002 84.65c-.035 12.609 3.793 25.345 11.772 36.327z" fill="#a41910"/><path d="m489.136 255.025c-.834-2.539-1.389-5.15-1.664-7.779l-168.079 8.145 9.615 29.592 98.323 31.943c38.129 12.388 74.194-23.771 61.805-61.901z" fill="#db2116"/><path d="m487.471 247.246c-.648-6.179.277-12.456 2.972-18.128 7.305-15.369 8.681-33.221 3.245-49.95-5.435-16.729-17.042-30.362-31.985-38.503-7.861-4.282-13.546-11.669-16.286-20.191-12.389-38.13-62.821-46.188-86.389-13.754l-110.531 152.107 172.686 31.037c32.159 6.008 65.535-17.336 66.288-42.618z" fill="#ff3a2f"/><path d="m367.19 285.018c32.349-10.511 50.052-45.256 39.541-77.605s-45.256-50.052-77.605-39.542c-12.912 4.195-23.49 12.25-30.873 22.474l-49.757 68.482 80.506 26.16c11.982 3.931 25.278 4.226 38.188.031z" fill="#a41910"/><path d="m316.032 236.883c5.066-7.931 5.075-18.475-.791-26.549s-15.897-11.323-25.005-8.956c-.563-9.394-6.754-17.93-16.245-21.014s-19.517.183-25.494 7.452c-5.977-7.269-16.003-10.536-25.494-7.452s-15.682 11.62-16.245 21.014c-9.108-2.367-19.139.882-25.005 8.956s-5.857 18.618-.791 26.549c-8.76 3.439-14.965 11.964-14.965 21.943 0 9.98 6.205 18.505 14.965 21.943-5.066 7.931-5.075 18.475.791 26.549s15.897 11.323 25.005 8.956c.563 9.394 6.753 17.93 16.245 21.014 9.491 3.084 19.517-.183 25.494-7.452 5.977 7.269 16.003 10.536 25.494 7.452s15.682-11.62 16.245-21.014c9.108 2.367 19.139-.882 25.005-8.956s5.857-18.618.791-26.549c8.76-3.439 14.965-11.964 14.965-21.943s-6.205-18.504-14.965-21.943z" fill="#ffd185"/><circle cx="248.497" cy="258.827" fill="#ffba48" r="45"/><circle cx="248.497" cy="258.827" fill="#ff7a3c" r="15"/></g></svg>