<svg height="512pt" viewBox="0 -11 512 512" width="512pt" xmlns="http://www.w3.org/2000/svg"><path d="m326.210938 482.988281h-269.121094c-27.386719 0-49.589844-22.199219-49.589844-49.585937v-288.226563c0-16.253906 6.457031-31.84375 17.953125-43.335937l76.386719-76.390625c11.496094-11.492188 27.085937-17.949219 43.339844-17.949219h181.03125c27.386718 0 49.589843 22.203125 49.589843 49.589844v376.308594c-.003906 27.390624-22.203125 49.589843-49.589843 49.589843zm0 0" fill="#5ad6ff"/><path d="m375.796875 433.402344v-98.136719h-139.035156s-26.066407 62.351563 11.71875 147.722656h77.730469c27.386718 0 49.585937-22.199219 49.585937-49.585937zm0 0" fill="#00c5fd"/><path d="m101.839844 25.449219-76.386719 76.390625c-11.496094 11.492187-17.953125 27.082031-17.953125 43.335937v105.15625c21.648438-42.050781 48.449219-29.0625 117.503906-51.320312 71.738282-23.121094 63.027344-153.308594 58.847656-191.511719h-38.671874c-16.257813 0-31.84375 6.457031-43.339844 17.949219zm0 0" fill="#00c5fd"/><path d="m311.417969 186.191406h-239.539063c-8.398437 0-15.207031-6.808594-15.207031-15.207031s6.808594-15.210937 15.207031-15.210937h239.539063c8.398437 0 15.210937 6.8125 15.210937 15.210937s-6.8125 15.207031-15.210937 15.207031zm0 0" fill="#6a829a"/><path d="m71.878906 155.777344c-8.398437 0-15.207031 6.808594-15.207031 15.207031s6.808594 15.210937 15.207031 15.210937h75.871094c9.257812-8 16.398438-18.480468 21.890625-30.417968zm0 0" fill="#516980"/><g fill="#6a829a"><path d="m311.417969 252.59375h-239.539063c-8.398437 0-15.207031-6.808594-15.207031-15.207031 0-8.402344 6.808594-15.210938 15.207031-15.210938h239.539063c8.398437 0 15.210937 6.808594 15.210937 15.210938 0 8.398437-6.8125 15.207031-15.210937 15.207031zm0 0"/><path d="m311.417969 318.996094h-239.539063c-8.398437 0-15.207031-6.808594-15.207031-15.210938 0-8.398437 6.808594-15.207031 15.207031-15.207031h239.539063c8.398437 0 15.210937 6.808594 15.210937 15.207031 0 8.402344-6.8125 15.210938-15.210937 15.210938zm0 0"/><path d="m311.417969 385.398438h-239.539063c-8.398437 0-15.207031-6.808594-15.207031-15.210938 0-8.398438 6.808594-15.207031 15.207031-15.207031h239.539063c8.398437 0 15.210937 6.808593 15.210937 15.207031 0 8.402344-6.8125 15.210938-15.210937 15.210938zm0 0"/></g><path d="m311.417969 354.980469h-80.09375c-1.570313 8.023437-2.949219 18.285156-3.261719 30.414062h83.355469c8.398437 0 15.210937-6.808593 15.210937-15.207031s-6.8125-15.207031-15.210937-15.207031zm0 0" fill="#516980"/><path d="m25.40625 101.886719c-5.21875 5.226562-9.398438 11.308593-12.402344 17.90625h75.210938c17.441406 0 31.578125-14.136719 31.578125-31.578125v-75.210938c-6.609375 3.007813-12.699219 7.199219-17.9375 12.429688zm0 0" fill="#a4e7ff"/><path d="m497.078125 468.175781c-9.894531 9.894531-25.941406 9.894531-35.835937 0l-76.957032-76.953125 35.839844-35.839844 76.953125 76.957032c9.894531 9.894531 9.894531 25.9375 0 35.835937zm0 0" fill="#6a829a"/><path d="m449.277344 398.007812-22.367188 22.367188c-13.480468 13.480469-35.335937 13.480469-48.816406 0l-15.851562-15.847656 71.1875-71.1875 15.847656 15.851562c13.480468 13.480469 13.480468 35.335938 0 48.816406zm0 0" fill="#f4e74d"/><path d="m440.261719 307.757812c0 57.21875-46.382813 103.601563-103.601563 103.601563s-103.601562-46.382813-103.601562-103.601563 46.382812-103.605468 103.601562-103.605468 103.601563 46.386718 103.601563 103.605468zm0 0" fill="#889cb0"/><path d="m383.769531 354.867188c-25.976562 25.980468-68.246093 25.980468-94.222656 0-25.976563-25.976563-25.976563-68.246094 0-94.222657 25.976563-25.976562 68.246094-25.976562 94.222656 0 25.976563 25.976563 25.976563 68.246094 0 94.222657zm0 0" fill="#76e7e7"/><path d="m345.816406 277.539062 5.96875 12.097657 13.351563 1.941406c8.375 1.214844 11.71875 11.507813 5.660156 17.417969l-9.660156 9.414062 2.277343 13.292969c1.433594 8.34375-7.324218 14.703125-14.8125 10.765625l-11.941406-6.277344-11.941406 6.277344c-7.488281 3.941406-16.246094-2.421875-14.816406-10.765625l2.28125-13.292969-9.660156-9.414062c-6.058594-5.910156-2.714844-16.203125 5.660156-17.417969l13.347656-1.941406 5.972656-12.097657c3.742188-7.589843 14.566406-7.589843 18.3125 0zm0 0" fill="#fffcdc"/><path d="m284.246094 255.339844c-23.148438 23.148437-28.320313 59.367187-12.578125 88.078125 1.992187 3.632812 6.550781 4.964843 10.183593 2.972656 3.628907-1.992187 4.960938-6.550781 2.96875-10.183594-12.558593-22.902343-8.433593-51.796875 10.03125-70.257812 23.050782-23.054688 60.5625-23.054688 83.617188 0 23.050781 23.050781 23.050781 60.5625 0 83.613281-19.453125 19.457031-50.40625 22.84375-73.59375 8.058594-3.492188-2.226563-8.128906-1.199219-10.355469 2.292968-2.226562 3.492188-1.199219 8.128907 2.292969 10.359376 12.117188 7.726562 25.929688 11.492187 39.679688 11.492187 19.238281 0 38.359374-7.371094 52.582031-21.59375 13.980469-13.980469 21.679687-32.597656 21.679687-52.414063 0-19.820312-7.699218-38.4375-21.679687-52.417968-28.902344-28.898438-75.929688-28.898438-104.828125 0zm0 0"/><path d="m380.511719 296.210938c-2.097657-6.460938-7.578125-11.078126-14.296875-12.058594l-9.449219-1.371094-4.222656-8.558594c-3.007813-6.089844-9.09375-9.875-15.882813-9.875-6.792968 0-12.878906 3.785156-15.882812 9.875l-4.226563 8.558594-9.445312 1.371094c-6.722657.980468-12.199219 5.597656-14.296875 12.058594-2.097656 6.457031-.382813 13.414062 4.480468 18.152343l6.835938 6.664063-1.613281 9.410156c-1.148438 6.691406 1.550781 13.332031 7.046875 17.320312 3.101562 2.257813 10.742187 5.335938 18.652344 1.351563l8.449218-4.445313 8.449219 4.445313c6.007813 3.15625 13.15625 2.644531 18.652344-1.351563 5.492187-3.988281 8.191406-10.628906 7.042969-17.320312l-1.613282-9.410156 6.835938-6.664063c4.863281-4.738281 6.582031-11.695312 4.484375-18.152343zm-14.953125 7.414062-9.660156 9.414062c-1.765626 1.722657-2.574219 4.207032-2.15625 6.640626l2.28125 13.292968c.246093 1.445313-.570313 2.28125-1.078126 2.652344-.511718.367188-1.558593.890625-2.855468.207031l-11.941406-6.277343c-1.09375-.574219-2.289063-.863282-3.488282-.863282-1.199218 0-2.398437.289063-3.492187.863282l-11.9375 6.277343c-1.300781.683594-2.347657.160157-2.855469-.207031-.511719-.371094-1.328125-1.207031-1.078125-2.652344l2.277344-13.292968c.417969-2.433594-.386719-4.917969-2.15625-6.640626l-9.660157-9.417968c-1.050781-1.019532-.878906-2.179688-.6875-2.777344.195313-.597656.738282-1.632812 2.191407-1.847656l13.347656-1.9375c2.445313-.355469 4.554687-1.886719 5.648437-4.101563l5.96875-12.097656c.652344-1.3125 1.804688-1.511719 2.433594-1.511719s1.78125.195313 2.429688 1.511719l5.972656 12.097656c1.089844 2.214844 3.203125 3.746094 5.648438 4.101563l13.347656 1.9375c1.449218.214844 1.992187 1.25 2.1875 1.847656.195312.597656.363281 1.753906-.6875 2.78125zm0 0"/><path d="m502.382812 427.035156-19.929687-19.929687c-2.925781-2.929688-7.675781-2.925781-10.605469 0-2.929687 2.929687-2.929687 7.679687 0 10.609375l19.925782 19.925781c3.371093 3.371094 9.015624 16.21875 0 25.230469-9.011719 9.015625-21.859376 3.371094-25.226563 0l-35.796875-35.796875c.496094-.453125 23.832031-23.761719 23.832031-23.761719 16.382813-16.382812 16.382813-43.042969 0-59.425781l-9.972656-9.972657c8.753906-36.390624-1.039063-76.371093-29.386719-104.71875-9.523437-9.523437-20.355468-16.949218-31.925781-22.285156v-149.820312c0-31.480469-25.609375-57.089844-57.085937-57.089844h-181.03125c-18.375 0-35.652344 7.15625-48.644532 20.148438l-76.386718 76.386718c-12.992188 12.992188-20.148438 30.269532-20.148438 48.640625v288.226563c0 31.476562 25.609375 57.089844 57.089844 57.089844h269.121094c31.476562 0 57.085937-25.609376 57.085937-57.089844v-.050782c5.871094 3.023438 19.957031 8.613282 34.339844 1.828126l38.300781 38.296874c6.203125 6.203126 26.855469 19.589844 46.445312.003907 6.203126-6.203125 9.617188-14.453125 9.617188-23.222657 0-8.773437-3.414062-17.019531-9.617188-23.222656zm-97.769531-51.324218c-37.46875 37.472656-98.4375 37.472656-135.910156 0-37.46875-37.46875-37.46875-98.4375 0-135.910157 18.738281-18.734375 43.347656-28.101562 67.957031-28.101562s49.21875 9.367187 67.953125 28.101562c37.472657 37.472657 37.472657 98.441407 0 135.910157zm-178.933593-64.214844h-153.800782c-4.25 0-7.707031-3.457032-7.707031-7.710938 0-4.25 3.457031-7.707031 7.707031-7.707031h154.347656c-.539062 5.121094-.71875 10.273437-.546874 15.417969zm24.808593 66.398437h-178.609375c-4.25 0-7.707031-3.457031-7.707031-7.707031s3.457031-7.707031 7.707031-7.707031h168.082032c3.03125 5.359375 6.535156 10.519531 10.527343 15.414062zm-5.582031-132.800781h-173.027344c-4.25 0-7.707031-3.457031-7.707031-7.707031s3.457031-7.710938 7.707031-7.710938h185.75c-4.777344 4.832031-9.015625 9.996094-12.722656 15.417969zm81.304688 230.394531h-269.121094c-23.207032 0-42.089844-18.878906-42.089844-42.089843v-288.222657c0-14.367187 5.59375-27.875 15.753906-38.035156l76.390625-76.386719c1.628907-1.628906 3.355469-3.128906 5.148438-4.519531v61.980469c0 13.277344-10.800781 24.078125-24.078125 24.078125h-40.511719c-4.144531 0-7.5 3.355469-7.5 7.5 0 4.140625 3.355469 7.5 7.5 7.5h40.511719c21.546875 0 39.078125-17.53125 39.078125-39.078125v-70.179688c5.671875-1.992187 11.695312-3.035156 17.886719-3.035156h181.03125c23.207031 0 42.085937 18.882812 42.085937 42.089844v144.179687c-30.753906-9.078125-64.691406-4.609375-92.3125 13.40625h-204.105469c-12.519531 0-22.707031 10.1875-22.707031 22.710938 0 12.519531 10.1875 22.707031 22.707031 22.707031h164.421875c-3.210937 6.773438-5.703125 13.808594-7.464843 20.984375h-156.957032c-12.519531 0-22.707031 10.1875-22.707031 22.707031 0 12.523438 10.1875 22.710938 22.707031 22.710938h155.308594c1.210938 7.128906 3.121094 14.15625 5.71875 20.984375h-161.027344c-12.519531 0-22.707031 10.1875-22.707031 22.707031 0 12.523438 10.1875 22.707031 22.707031 22.707031h193.40625c20.570313 17.269531 45.96875 25.914063 71.375 25.914063 8.785156 0 17.570313-1.039063 26.15625-3.105469l5.480469 5.480469v12.214844c0 23.210937-18.878906 42.089843-42.085937 42.089843zm52.644531-64.957031c13.238281-5.414062 25.636719-13.480469 36.367187-24.210938 10.726563-10.730468 18.796875-23.128906 24.210938-36.367187 0 0 26.671875 20.621094 4.542968 42.753906l-22.367187 22.363281c-22.808594 22.8125-42.753906-4.539062-42.753906-4.539062zm0 0"/><path d="m71.878906 193.691406h239.539063c12.519531 0 22.710937-10.1875 22.710937-22.707031s-10.1875-22.707031-22.710937-22.707031h-239.539063c-12.519531 0-22.707031 10.1875-22.707031 22.707031 0 12.523437 10.1875 22.707031 22.707031 22.707031zm0-30.414062h239.539063c4.25 0 7.710937 3.457031 7.710937 7.707031s-3.460937 7.707031-7.710937 7.707031h-239.539063c-4.25 0-7.707031-3.457031-7.707031-7.707031s3.457031-7.707031 7.707031-7.707031zm0 0"/></svg>