<svg fill="#000000" xmlns="http://www.w3.org/2000/svg"  viewBox="0 0 50 50" width="50px" height="50px"><path d="M20 25c0-3.589-1.899-6.725-4.739-8.489C13.731 15.557 11.931 15 10 15 4.486 15 0 19.486 0 25c0 5.514 4.486 10 10 10 2.051 0 3.949-.634 5.537-1.698C18.22 31.51 20 28.471 20 25zM21.957 24.34l10.347-5.174c-2.416-2.028-4.009-4.98-4.247-8.313l-10.217 5.108C20.219 18.025 21.772 20.996 21.957 24.34zM17.865 34.051l10.189 5.095c.237-3.333 1.829-6.287 4.241-8.317l-10.337-5.167C21.774 29.002 20.239 31.986 17.865 34.051zM40 0c-5.464 0-9.913 4.408-9.992 9.854C30.007 9.903 30 9.951 30 10c0 3.688 2.004 6.899 4.976 8.633C36.453 19.498 38.167 20 40 20c5.514 0 10-4.486 10-10S45.514 0 40 0zM40 30c-2.063 0-3.976.638-5.569 1.712C31.764 33.508 30 36.543 30 40c0 .015.002.028.002.042-.044.003-.083.011-.127.014l.131.065C30.072 45.579 34.527 50 40 50c5.514 0 10-4.486 10-10S45.514 30 40 30z"/></svg>