<?xml version="1.0" encoding="iso-8859-1"?>
<!-- Generator: Adobe Illustrator 19.0.0, SVG Export Plug-In . SVG Version: 6.00 Build 0)  -->
<svg version="1.1" id="Capa_1" xmlns="http://www.w3.org/2000/svg" xmlns:xlink="http://www.w3.org/1999/xlink" x="0px" y="0px"
	 viewBox="0 0 468.293 468.293" style="enable-background:new 0 0 468.293 468.293;" xml:space="preserve">
<g>
	<path style="fill:#64798A;" d="M160.174,376.086c-2.875,0-5.463-1.994-6.098-4.921c-0.729-3.372,1.412-6.695,4.78-7.427
		l293.183-63.53c3.375-0.738,6.698,1.409,7.427,4.78s-1.412,6.695-4.78,7.427l-293.183,63.53
		C161.058,376.043,160.613,376.086,160.174,376.086z"/>
	<path style="fill:#64798A;" d="M7.662,376.086c-2.79,0-5.329-1.878-6.049-4.701c-0.851-3.341,1.171-6.744,4.512-7.591
		l249.476-63.53c3.335-0.872,6.738,1.165,7.591,4.506c0.851,3.341-1.171,6.744-4.512,7.591L9.205,375.89
		C8.69,376.025,8.171,376.086,7.662,376.086z"/>
</g>
<path style="fill:#2D93BA;" d="M186.743,92.207c0,0,91.369,110.227,281.55,151.508v65.237l-281.55,46.467V92.207z"/>
<g>
	<path style="fill:#E1E6E9;" d="M211.747,150.227c9.303,7.68,20.23,15.984,32.593,24.538v64.062
		c-12.488-5.682-23.352-11.301-32.593-16.421V150.227z"/>
	<path style="fill:#E1E6E9;" d="M253.894,181.197c10.115,6.744,21.167,13.612,33.093,20.418v54.572
		c-11.926-4.308-22.978-8.679-33.093-13.05V181.197z"/>
	<path style="fill:#E1E6E9;" d="M296.54,206.859c10.365,5.62,21.417,11.239,33.093,16.671v45.893
		c-11.676-3.122-22.728-6.493-33.093-9.928V206.859z"/>
	<path style="fill:#E1E6E9;" d="M339.185,227.839c10.552,4.683,21.542,9.178,33.093,13.549v37.776
		c-11.489-2.185-22.541-4.62-33.093-7.243V227.839z"/>
	<path style="fill:#E1E6E9;" d="M381.831,244.947c10.178,3.622,20.855,7.056,31.782,10.365v30.221
		c-10.927-1.311-21.542-2.872-31.782-4.683V244.947z"/>
	<path style="fill:#E1E6E9;" d="M443.334,263.554v24.226l-2.061,0.312c-6.119-0.437-12.176-0.936-18.107-1.561v-28.347
		C429.722,260.057,436.465,261.806,443.334,263.554z"/>
</g>
<path style="fill:#27A2DB;" d="M186.743,355.419H34.355C20.939,342.002,13.417,334.48,0,321.064V126.562
	c13.417-13.417,20.939-20.939,34.355-34.355h152.387c13.417,13.417,20.939,20.939,34.355,34.355v194.501
	C207.681,334.48,200.159,342.002,186.743,355.419z"/>
<polygon style="fill:#E1E6E9;" points="189.878,226.936 189.878,142.819 173.811,126.752 47.287,126.752 31.22,142.819 
	31.22,226.936 "/>
<polygon style="fill:#D5D6DB;" points="189.878,226.936 189.878,142.819 173.811,126.752 31.22,226.936 "/>
<circle style="fill:#E1E6E9;" cx="60.916" cy="292.777" r="28.098"/>
<circle style="fill:#44C4A1;" cx="60.916" cy="292.777" r="16.859"/>
<circle style="fill:#E1E6E9;" cx="160.156" cy="292.777" r="28.098"/>
<circle style="fill:#44C4A1;" cx="160.156" cy="292.777" r="16.859"/>
<g>
</g>
<g>
</g>
<g>
</g>
<g>
</g>
<g>
</g>
<g>
</g>
<g>
</g>
<g>
</g>
<g>
</g>
<g>
</g>
<g>
</g>
<g>
</g>
<g>
</g>
<g>
</g>
<g>
</g>
</svg>
