<?xml version="1.0" encoding="iso-8859-1"?>
<!-- Generator: Adobe Illustrator 18.1.1, SVG Export Plug-In . SVG Version: 6.00 Build 0)  -->
<svg version="1.1" id="Capa_1" xmlns="http://www.w3.org/2000/svg" xmlns:xlink="http://www.w3.org/1999/xlink" x="0px" y="0px"
	 viewBox="0 0 377.639 377.639" style="enable-background:new 0 0 377.639 377.639;" xml:space="preserve">
<path d="M369.639,357.645H8c-4.418,0-8-3.582-8-8s3.582-8,8-8h361.639c4.418,0,8,3.582,8,8S374.057,357.645,369.639,357.645z
	 M354.969,321.182c-4.418,0-8-3.582-8-8V136.397h-64.51c-4.418,0-8-3.582-8-8s3.582-8,8-8h72.51c4.418,0,8,3.582,8,8v184.785
	C362.969,317.601,359.387,321.182,354.969,321.182z M315.096,321.182h-63.138c-4.418,0-8-3.582-8-8V199.438c0-4.418,3.582-8,8-8
	h63.138c4.418,0,8,3.582,8,8v113.745C323.096,317.601,319.514,321.182,315.096,321.182z M259.958,305.182h47.138v-97.745h-47.138
	V305.182z M218.927,321.182c-4.418,0-8-3.582-8-8v-100.85h-44.216v100.85c0,4.418-3.582,8-8,8s-8-3.582-8-8V204.334
	c0-4.418,3.582-8,8-8c0.327,0,0.65,0.02,0.967,0.058c0.321-0.04,0.647-0.06,0.979-0.06h56.323c0.332,0,0.658,0.02,0.979,0.06
	c0.316-0.039,0.64-0.058,0.967-0.058c4.418,0,8,3.582,8,8v108.848C226.927,317.601,223.345,321.182,218.927,321.182z
	 M125.682,321.182H62.543c-4.418,0-8-3.582-8-8V199.438c0-4.418,3.582-8,8-8h63.139c4.418,0,8,3.582,8,8v113.745
	C133.682,317.601,130.1,321.182,125.682,321.182z M70.543,305.182h47.139v-97.745H70.543V305.182z M22.67,321.182
	c-4.418,0-8-3.582-8-8V128.397c0-4.418,3.582-8,8-8h72.51c4.418,0,8,3.582,8,8s-3.582,8-8,8H30.67v176.785
	C30.67,317.601,27.088,321.182,22.67,321.182z M188.819,278.799c-4.418,0-8-3.582-8-8v-15.602c0-4.418,3.582-8,8-8s8,3.582,8,8
	v15.602C196.819,275.218,193.237,278.799,188.819,278.799z M254.747,167.85H122.891c-4.418,0-8-3.582-8-8V27.993
	c0-4.418,3.582-8,8-8h131.856c4.418,0,8,3.582,8,8V159.85C262.747,164.268,259.165,167.85,254.747,167.85z M130.891,151.85h115.856
	V35.993H130.891V151.85z M202.512,135.479h-27.385c-4.418,0-8-3.582-8-8v-11.866h-11.864c-4.418,0-8-3.582-8-8V80.228
	c0-4.418,3.582-8,8-8h11.864V60.364c0-4.418,3.582-8,8-8h27.385c4.418,0,8,3.582,8,8v11.864h11.865c4.418,0,8,3.582,8,8v27.386
	c0,4.418-3.582,8-8,8h-11.865v11.866C210.512,131.898,206.93,135.479,202.512,135.479z M183.127,119.479h11.385v-11.866
	c0-4.418,3.582-8,8-8h11.865V88.228h-11.865c-4.418,0-8-3.582-8-8V68.364h-11.385v11.864c0,4.418-3.582,8-8,8h-11.864v11.386h11.864
	c4.418,0,8,3.582,8,8V119.479z"/>
<g>
</g>
<g>
</g>
<g>
</g>
<g>
</g>
<g>
</g>
<g>
</g>
<g>
</g>
<g>
</g>
<g>
</g>
<g>
</g>
<g>
</g>
<g>
</g>
<g>
</g>
<g>
</g>
<g>
</g>
</svg>
