<svg height="512pt" viewBox="0 0 512 512" width="512pt" xmlns="http://www.w3.org/2000/svg"><path d="m512 172.625v-54.648438l-256-117.976562-256 117.976562v54.648438zm-256.5-123.191406c25.347656 0 45.972656 20.621094 45.972656 45.96875 0 25.351562-20.625 45.972656-45.972656 45.972656s-45.972656-20.621094-45.972656-45.972656c0-25.347656 20.625-45.96875 45.972656-45.96875zm0 0"/><path d="m255.5 111.375c8.808594 0 15.972656-7.164062 15.972656-15.972656 0-8.804688-7.167968-15.96875-15.972656-15.96875s-15.972656 7.164062-15.972656 15.96875c0 8.808594 7.164062 15.972656 15.972656 15.972656zm0 0"/><path d="m499 354.070312h-38.539062v-151.445312h-97.460938v151.445312h-58.769531v-151.445312h-97.460938v151.445312h-58.769531v-151.445312h-97.460938v151.445312h-26.539062v57.25h475zm0 0"/><path d="m0 441.320312h512v69.75h-512zm0 0"/></svg>