<?xml version="1.0" encoding="iso-8859-1"?>
<!-- Generator: Adobe Illustrator 18.0.0, SVG Export Plug-In . SVG Version: 6.00 Build 0)  -->
<!DOCTYPE svg PUBLIC "-//W3C//DTD SVG 1.1//EN" "http://www.w3.org/Graphics/SVG/1.1/DTD/svg11.dtd">
<svg version="1.1" id="Capa_1" xmlns="http://www.w3.org/2000/svg" xmlns:xlink="http://www.w3.org/1999/xlink" x="0px" y="0px"
	 viewBox="0 0 355.55 355.55" style="enable-background:new 0 0 355.55 355.55;" xml:space="preserve">
<path d="M280.493,146.007c4.164-11.676,6.269-23.901,6.269-36.471c0-72.067-101.48-107.013-105.8-108.465L177.775,0l-3.187,1.071
	c-4.32,1.452-105.8,36.397-105.8,108.465c0,12.571,2.104,24.796,6.268,36.471c-15.404,8.053-24.018,23.854-24.018,44.834V355.55
	h253.473V190.841C304.511,169.861,295.897,154.059,280.493,146.007z M281.326,174.213l-1.982,1.982h-14.068v-11.269l2.635-2.634
	C274.166,164.561,278.619,168.512,281.326,174.213z M265.275,96.949c0.914,3.86,1.428,7.857,1.473,11.99l-1.473-1.473V96.949z
	 M266.538,115.8c-0.192,2.781-0.507,5.539-0.956,8.269c-0.909,2.478-1.436,5.061-1.617,7.665c-0.018,0.067-0.037,0.133-0.055,0.2
	l-0.203-0.204l-0.931,0.931l-10.314-10.314l10.311-10.311L266.538,115.8z M246.207,261.195l-9.948-9.946l12.668-12.668
	l11.349,11.349v11.265H246.207z M260.275,266.195v11.267l-11.349,11.349l-12.669-12.668l9.949-9.948H260.275z M234.269,223.923
	l11.122,11.122l-12.668,12.668l-9.948-9.946v-14.026C226.623,223.815,230.453,223.874,234.269,223.923z M222.775,218.741v-14.113
	l9.949-9.948l12.667,12.667l-11.569,11.57C230.154,218.869,226.472,218.811,222.775,218.741z M238.613,221.196l10.314-10.314
	l10.314,10.314l-10.314,10.314L238.613,221.196z M248.926,203.811l-12.667-12.667l9.947-9.948h14.068v11.266L248.926,203.811z
	 M246.207,176.195l-9.947-9.947l12.667-12.668l4.399,4.4l-0.167,0.355l0.702,0.18l6.414,6.415v11.265H246.207z M258.309,147.393
	l-2.72,5.779l-3.127-3.127l8.244-8.245C259.971,143.683,259.177,145.549,258.309,147.393z M248.927,146.51l-10.314-10.314
	l10.314-10.313l10.313,10.314L248.927,146.51z M236.257,106.143l9.949-9.948h14.068v11.267l-11.349,11.349L236.257,106.143z
	 M245.391,122.347l-11.124,11.124c-3.83,0.049-7.66,0.109-11.492,0.182v-14.027l9.947-9.947L245.391,122.347z M233.823,138.476
	l11.568,11.569l-12.667,12.668l-9.949-9.948v-14.113C226.458,138.583,230.14,138.523,233.823,138.476z M241.636,178.696
	l-21.361,21.36l-21.361-21.36l21.361-21.36L241.636,178.696z M161.207,261.195l-9.948-9.946l12.668-12.668l11.349,11.35v11.265
	H161.207z M175.275,266.195v11.267l-11.35,11.35l-12.668-12.669l9.949-9.948H175.275z M167.461,207.348l10.311-10.312l10.314,10.314
	l-10.313,10.312L167.461,207.348z M174.24,221.196l-10.313,10.314l-10.314-10.314l10.314-10.313L174.24,221.196z M167.461,150.045
	l10.313-10.314l10.312,10.311l-10.314,10.314L167.461,150.045z M191.623,210.884l10.312,10.312l-10.312,10.312l-10.313-10.312
	L191.623,210.884z M180.275,192.466v-11.27h14.068l9.947,9.948l-12.668,12.669L180.275,192.466z M180.275,176.195v-11.269
	l11.348-11.348l12.669,12.669l-9.948,9.947H180.275z M195.157,150.043l11.348-11.348h11.271v14.07l-9.948,9.948L195.157,150.043z
	 M191.622,146.508l-10.312-10.312l10.313-10.312l10.312,10.311L191.622,146.508z M177.775,132.661l-10.314-10.314l10.313-10.312
	l10.314,10.313L177.775,132.661z M174.24,136.196l-10.313,10.314l-10.314-10.314l10.313-10.313L174.24,136.196z M175.275,164.93
	v11.265h-14.068l-9.947-9.947l12.667-12.668L175.275,164.93z M175.275,181.196v11.266l-11.35,11.35l-12.667-12.667l9.948-9.948
	H175.275z M160.391,207.347l-11.349,11.349h-11.268v-14.069l9.948-9.948L160.391,207.347z M149.042,223.696l11.349,11.349
	l-12.668,12.668l-9.948-9.946v-14.072H149.042z M167.461,235.045l10.313-10.314l10.313,10.312l-10.314,10.314L167.461,235.045z
	 M180.275,266.195h14.068l9.949,9.948l-12.67,12.67l-11.348-11.347V266.195z M180.275,261.195v-11.269l11.348-11.348l12.67,12.67
	l-9.949,9.947H180.275z M195.158,235.043l11.347-11.347h11.271v14.072l-9.947,9.946L195.158,235.043z M206.504,218.696
	l-11.347-11.348l12.669-12.669l9.948,9.948v14.069H206.504z M217.775,133.695h-11.271l-11.347-11.347l12.67-12.67l9.947,9.946
	V133.695z M191.623,118.813l-11.348-11.347V96.195h14.068l9.949,9.948L191.623,118.813z M180.275,91.195V79.926l11.348-11.348
	l12.67,12.67l-9.949,9.947H180.275z M195.158,65.043l11.347-11.347h11.271v14.072l-9.947,9.946L195.158,65.043z M191.623,61.508
	L181.31,51.196l10.313-10.312l10.312,10.312L191.623,61.508z M188.087,65.043l-10.314,10.313l-10.311-10.312l10.313-10.313
	L188.087,65.043z M163.926,61.51l-10.314-10.313l10.314-10.313l10.313,10.313L163.926,61.51z M175.275,79.93v11.265h-14.068
	l-9.948-9.946l12.668-12.669L175.275,79.93z M175.275,96.195v11.267l-11.35,11.35l-12.668-12.668l9.949-9.948H175.275z
	 M160.39,122.347l-11.348,11.348h-11.268v-14.071l9.947-9.946L160.39,122.347z M149.042,138.695l11.349,11.35l-12.667,12.668
	l-9.949-9.948v-14.07H149.042z M156.636,178.696l-21.361,21.36l-21.362-21.36l21.362-21.36L156.636,178.696z M95.275,261.195
	v-11.269l11.347-11.347l12.67,12.669l-9.949,9.947H95.275z M119.291,276.143l-12.67,12.67l-11.347-11.347v-11.271h14.067
	L119.291,276.143z M102.224,157.977l4.532-4.533c4.339,4.146,8.642,8.385,12.616,12.722l-10.03,10.03H95.275v-11.269l6.409-6.41
	l0.708-0.182L102.224,157.977z M110.292,149.907l11.432-11.432c3.703,0.047,7.385,0.108,11.051,0.178v14.112l-9.862,9.861
	C118.909,158.269,114.614,154.038,110.292,149.907z M109.342,181.196l9.948,9.948l-12.669,12.669l-11.347-11.347v-11.27H109.342z
	 M116.933,221.196l-10.313,10.312l-10.312-10.312l10.312-10.312L116.933,221.196z M110.157,235.044l11.122-11.123
	c3.848-0.048,7.681-0.107,11.496-0.18v14.027l-9.948,9.946L110.157,235.044z M121.722,218.915l-11.565-11.566l12.669-12.67
	l9.949,9.948v14.113C129.106,218.81,125.42,218.867,121.722,218.915z M132.775,133.652c-3.813-0.072-7.644-0.134-11.496-0.182
	l-11.082-11.083c4.24-4.168,8.506-8.414,12.654-12.686l9.924,9.922V133.652z M116.933,136.195l-10.313,10.313L96.31,136.196
	l10.312-10.312L116.933,136.195z M103.085,150.043l-3.125,3.126l-2.72-5.777c-0.868-1.844-1.662-3.71-2.398-5.593L103.085,150.043z
	 M103.085,207.349l-10.312,10.312L82.46,207.348l10.313-10.313L103.085,207.349z M103.085,235.043l-10.313,10.314L82.46,235.044
	l10.313-10.313L103.085,235.043z M103.086,292.349l-10.313,10.313L82.46,292.348l10.313-10.312L103.086,292.349z M106.622,295.884
	l10.312,10.312l-10.313,10.313l-10.312-10.312L106.622,295.884z M110.157,292.349l12.671-12.67l9.947,9.946v14.026
	c-3.815-0.072-7.648-0.131-11.495-0.179L110.157,292.349z M113.914,263.695l21.361-21.357l21.361,21.357l-21.361,21.358
	L113.914,263.695z M137.775,289.625l9.947-9.946l12.668,12.668l-11.348,11.348h-11.268V289.625z M163.925,295.882l10.314,10.314
	l-10.313,10.314l-10.314-10.314L163.925,295.882z M167.46,292.347l10.313-10.311l10.314,10.313l-10.313,10.312L167.46,292.347z
	 M191.623,295.884l10.312,10.311l-10.313,10.313l-10.312-10.312L191.623,295.884z M195.158,292.349l12.67-12.67l9.947,9.946v14.071
	h-11.271L195.158,292.349z M198.914,263.695l21.361-21.357l21.361,21.357l-21.361,21.358L198.914,263.695z M222.775,289.625
	l9.947-9.947l12.669,12.669l-11.122,11.122c-3.816,0.048-7.646,0.108-11.494,0.181V289.625z M248.926,295.882l10.314,10.314
	l-10.314,10.314l-10.314-10.315L248.926,295.882z M252.461,292.347l10.311-10.311l10.314,10.313l-10.311,10.312L252.461,292.347z
	 M252.462,235.045l10.313-10.314l10.311,10.311l-10.314,10.314L252.462,235.045z M252.462,207.347l10.311-10.312l10.314,10.314
	l-10.311,10.312L252.462,207.347z M254.958,74.614c1.983,2.839,3.768,5.787,5.316,8.836v7.745h-14.068l-9.964-9.962
	c4.175-4.264,8.476-8.472,12.745-12.591L254.958,74.614z M222.775,44.434c1.737,1.175,3.469,2.392,5.188,3.649
	c-1.772,0.103-3.501,0.225-5.188,0.37V44.434z M222.775,53.471c3.297-0.291,6.751-0.499,10.416-0.625l12.26,12.26
	c-4.262,4.113-8.558,8.318-12.744,12.592l-9.932-9.93V53.471z M241.636,93.695l-21.361,21.358l-21.361-21.358l21.361-21.356
	L241.636,93.695z M217.775,41.171v7.525h-11.271l-11.347-11.348l5.766-5.767C206.234,34.308,211.972,37.508,217.775,41.171z
	 M180.275,22.173c3.865,1.538,9.444,3.897,15.935,7.053l-4.587,4.587l-11.348-11.347V22.173z M188.087,37.349l-10.313,10.312
	l-10.313-10.313l10.311-10.312L188.087,37.349z M175.275,22.173v0.29l-11.35,11.35l-4.586-4.586
	C165.831,26.07,171.41,23.71,175.275,22.173z M137.775,41.171c5.803-3.663,11.541-6.862,16.851-9.589l5.766,5.765l-11.349,11.349
	h-11.268V41.171z M137.775,53.696h11.268l11.349,11.349l-12.668,12.668l-9.948-9.946V53.696z M156.636,93.695l-21.361,21.358
	l-21.361-21.358l21.361-21.356L156.636,93.695z M132.775,44.434v4.303c-2.078,0.029-4.135,0.042-6.134,0.043
	C128.669,47.274,130.719,45.824,132.775,44.434z M121.443,53.757c1.623,0.014,3.311,0.023,5.041,0.023
	c2.046,0,4.16-0.018,6.291-0.047v14.035l-9.923,9.92c-4.017-4.12-8.118-8.23-12.636-12.705L121.443,53.757z M95.275,83.451
	c1.553-3.056,3.34-6.008,5.327-8.853l6.079-6.079c4.521,4.479,8.623,8.589,12.635,12.705l-9.974,9.971H95.275V83.451z
	 M95.275,96.195h14.067l9.973,9.971c-4.14,4.264-8.408,8.512-12.654,12.687l-11.386-11.386V96.195z M103.086,122.349l-10.312,10.312
	l-1.285-1.285c-1.289-5.09-2.112-10.293-2.478-15.58l3.761-3.76L103.086,122.349z M90.275,96.95v10.513l-1.473,1.473
	C88.847,104.804,89.362,100.809,90.275,96.95z M87.638,162.293l2.637,2.637v11.265H76.207l-1.982-1.982
	C76.931,168.513,81.383,164.562,87.638,162.293z M71.039,190.841c0-1.635,0.082-3.184,0.209-4.686l4.959-4.959h14.068v11.266
	l-11.35,11.35l-7.887-7.887V190.841z M71.039,202.996l4.352,4.352l-4.352,4.352V202.996z M71.039,218.77l7.887-7.887l10.313,10.313
	l-10.313,10.313l-7.887-7.887V218.77z M71.039,230.693l4.352,4.352l-4.352,4.352V230.693z M71.039,246.468l7.887-7.887l11.35,11.35
	v11.265H76.207l-5.168-5.167V246.468z M71.039,263.099l0.598,0.597l-0.598,0.597V263.099z M71.039,271.363l5.168-5.167h14.068
	v11.267l-11.35,11.35l-7.887-7.887V271.363z M71.039,287.996l4.352,4.352l-4.352,4.352V287.996z M71.039,303.77l7.887-7.887
	l10.313,10.313l-10.313,10.313l-7.888-7.888V303.77z M71.039,315.692l4.353,4.353l-4.353,4.353V315.692z M90.275,335.55H71.039
	v-4.082l7.888-7.888l11.349,11.35V335.55z M82.46,320.044l10.313-10.313l10.312,10.312l-10.313,10.314L82.46,320.044z
	 M95.275,335.55v-0.624l11.347-11.348l11.971,11.971H95.275z M110.156,320.043l11.566-11.566c3.698,0.047,7.384,0.105,11.053,0.174
	v14.114l-9.949,9.948L110.156,320.043z M127.06,335.55l8.215-8.214l8.215,8.214H127.06z M137.775,322.765v-14.07h11.268
	l11.349,11.35l-12.667,12.668L137.775,322.765z M175.275,335.55h-23.317l11.969-11.969l11.349,11.35V335.55z M167.461,320.045
	l10.313-10.313l10.312,10.311l-10.314,10.314L167.461,320.045z M180.275,335.55v-0.624l11.348-11.348l11.971,11.971H180.275z
	 M195.157,320.043l11.348-11.348h11.271v14.07l-9.948,9.948L195.157,320.043z M212.06,335.55l8.215-8.214l8.215,8.214H212.06z
	 M222.775,322.765v-14.114c3.697-0.07,7.379-0.128,11.047-0.175l11.569,11.57l-12.667,12.668L222.775,322.765z M260.275,335.55
	h-23.317l11.969-11.969l11.349,11.35V335.55z M252.462,320.045l10.313-10.314l10.311,10.311l-10.314,10.314L252.462,320.045z
	 M284.511,335.55h-19.236v-0.624l11.348-11.348l7.889,7.889V335.55z M284.511,324.396l-4.354-4.353l4.354-4.354V324.396z
	 M284.511,308.619l-7.889,7.889l-10.312-10.312l10.312-10.312l7.889,7.887V308.619z M284.511,296.702l-4.354-4.353l4.354-4.354
	V296.702z M284.511,280.925l-7.889,7.889l-11.348-11.347v-11.271h14.068l5.168,5.167V280.925z M284.511,264.292l-0.598-0.597
	l0.598-0.597V264.292z M284.511,256.028l-5.168,5.167h-14.068v-11.269l11.348-11.348l7.889,7.888V256.028z M284.511,239.396
	l-4.354-4.353l4.354-4.353V239.396z M284.511,223.62l-7.889,7.888l-10.312-10.312l10.312-10.311l7.889,7.888V223.62z
	 M284.511,211.702l-4.354-4.354l4.354-4.354V211.702z M284.511,195.925l-7.889,7.889l-11.348-11.347v-11.27h14.068l4.959,4.959
	c0.127,1.501,0.209,3.05,0.209,4.686V195.925z"/>
<g>
</g>
<g>
</g>
<g>
</g>
<g>
</g>
<g>
</g>
<g>
</g>
<g>
</g>
<g>
</g>
<g>
</g>
<g>
</g>
<g>
</g>
<g>
</g>
<g>
</g>
<g>
</g>
<g>
</g>
</svg>
